<svg width="116" height="116" viewBox="0 0 116 116" fill="none" xmlns="http://www.w3.org/2000/svg">
<g filter="url(#filter0_d_4826_43705)">
<rect x="6" y="3" width="100" height="100" rx="23" fill="white"/>
</g>
<g clip-path="url(#clip0_4826_43705)">
<mask id="path-2-inside-1_4826_43705" fill="white">
<path d="M44.4919 26.5927C45.0796 26.6512 45.7855 26.8211 46.4981 26.9499C47.4859 27.1282 48.4726 27.3121 49.4581 27.5021C49.611 27.5316 49.7209 27.5088 49.8359 27.4018C51.1278 26.1987 52.4537 25.0296 53.7094 23.7902C54.8528 22.6618 56.3858 22.8345 57.2971 23.7295C58.536 24.9471 59.8397 26.0984 61.107 27.287C61.2984 27.4664 61.4709 27.5428 61.7477 27.4965C63.5256 27.2001 65.3142 26.961 67.0866 26.6328C68.4762 26.3753 69.6447 27.4603 69.8367 28.542C70.0867 29.949 70.3133 31.3606 70.5499 32.7699C70.5806 32.9527 70.6375 33.136 70.6381 33.3188C70.6392 33.7428 70.8686 33.939 71.2386 34.1062C72.7291 34.7805 74.2063 35.4832 75.684 36.1859C76.9748 36.7994 77.3783 37.9596 76.7438 39.2458C75.9999 40.7537 75.246 42.2561 74.4825 43.754C74.3642 43.9864 74.3838 44.1469 74.5294 44.3553C75.5283 45.788 76.5183 47.2268 77.5044 48.6685C78.178 49.6531 78.183 51.1951 76.6439 51.9228C75.0975 52.654 73.5517 53.3856 71.997 54.0984C71.7157 54.2271 71.6002 54.3999 71.5533 54.6952C71.2994 56.299 71.0326 57.9011 70.7581 59.5021C70.5756 60.5659 69.7106 61.4007 68.6626 61.5339C68.1927 61.5935 67.7406 61.4408 67.283 61.3717C65.7026 61.1327 64.125 60.8774 62.5468 60.6233C62.3637 60.5938 62.2309 60.6406 62.0953 60.7671C60.7577 62.0165 59.4144 63.2608 58.0734 64.5063C57.1476 65.3661 55.7636 65.3795 54.8333 64.5236C53.5341 63.3283 52.2383 62.129 50.952 60.9198C50.7014 60.6841 50.4676 60.5921 50.1105 60.6534C48.352 60.9538 46.5869 61.2151 44.8256 61.5021C43.7676 61.6743 42.7257 61.0875 42.2809 60.0315C42.0292 59.433 42.0119 58.7827 41.8992 58.1541C41.6821 56.9387 41.4834 55.7206 41.2892 54.5013C41.2569 54.299 41.1346 54.2226 40.9789 54.1502C39.4722 53.4442 37.9638 52.742 36.4603 52.0293C35.1288 51.3979 34.6612 50.0265 35.3174 48.7147C36.0451 47.2614 36.769 45.8058 37.505 44.3564C37.6083 44.1535 37.6144 43.9942 37.5095 43.7885C36.7561 42.3062 36.0145 40.8184 35.2711 39.331C34.9525 38.693 34.8135 38.0343 35.0964 37.345C35.3158 36.8106 35.722 36.4522 36.2349 36.2109C37.8404 35.4536 39.4476 34.6991 41.0571 33.949C41.1994 33.8827 41.2636 33.7975 41.2892 33.6398C41.5632 31.954 41.8434 30.2695 42.1274 28.586C42.3294 27.3901 43.2318 26.5871 44.4925 26.5938L44.4919 26.5927Z"/>
</mask>
<path d="M44.4919 26.5927L45.0864 20.6222L34.2619 19.5444L39.1249 29.2749L44.4919 26.5927ZM46.4981 26.9499L45.4316 32.8543L45.4322 32.8544L46.4981 26.9499ZM49.4581 27.5021L50.596 21.611L50.5941 21.6106L49.4581 27.5021ZM49.8359 27.4018L53.9236 31.7939L53.925 31.7926L49.8359 27.4018ZM53.7094 23.7902L49.4949 19.5196L49.4945 19.52L53.7094 23.7902ZM57.2971 23.7295L61.5029 19.4502L61.5012 19.4486L57.2971 23.7295ZM61.107 27.287L57.0025 31.6634L57.0035 31.6644L61.107 27.287ZM61.7477 27.4965L60.7608 21.5782L60.7588 21.5786L61.7477 27.4965ZM67.0866 26.6328L68.1791 32.5325L68.1796 32.5324L67.0866 26.6328ZM69.8367 28.542L63.929 29.5905L63.9292 29.5916L69.8367 28.542ZM70.5499 32.7699L64.6327 33.7633L64.6328 33.7635L70.5499 32.7699ZM70.6381 33.3188L76.6381 33.303L76.6381 33.3005L70.6381 33.3188ZM71.2386 34.1062L73.7115 28.6395L73.7091 28.6384L71.2386 34.1062ZM75.684 36.1859L73.1074 41.6044L73.1083 41.6049L75.684 36.1859ZM76.7438 39.2458L71.363 36.5912L71.3629 36.5913L76.7438 39.2458ZM74.4825 43.754L69.1368 41.0295L69.1356 41.0318L74.4825 43.754ZM74.5294 44.3553L79.4512 40.9237L79.4474 40.9183L74.5294 44.3553ZM77.5044 48.6685L72.5521 52.0559L72.5522 52.0561L77.5044 48.6685ZM76.6439 51.9228L79.2085 57.3471L79.2087 57.347L76.6439 51.9228ZM71.997 54.0984L74.4939 59.5541L74.4973 59.5526L71.997 54.0984ZM71.5533 54.6952L65.6275 53.7547L65.6271 53.757L71.5533 54.6952ZM70.7581 59.5021L76.6717 60.5165L76.6717 60.5163L70.7581 59.5021ZM68.6626 61.5339L69.4179 67.4861L69.419 67.486L68.6626 61.5339ZM67.283 61.3717L66.3856 67.3042L66.3872 67.3045L67.283 61.3717ZM62.5468 60.6233L61.591 66.5467L61.593 66.547L62.5468 60.6233ZM62.0953 60.7671L58.0026 56.3796L57.9999 56.3822L62.0953 60.7671ZM58.0734 64.5063L62.1565 68.9027L62.1565 68.9027L58.0734 64.5063ZM54.8333 64.5236L58.8959 60.1082L58.8958 60.1081L54.8333 64.5236ZM50.952 60.9198L46.8408 65.2899L46.8424 65.2914L50.952 60.9198ZM50.1105 60.6534L51.1207 66.5678L51.1254 66.5669L50.1105 60.6534ZM44.8256 61.5021L45.7894 67.4242L45.7906 67.424L44.8256 61.5021ZM42.2809 60.0315L36.75 62.3574L36.7513 62.3605L42.2809 60.0315ZM41.8992 58.1541L35.9927 59.2091L35.9934 59.2132L41.8992 58.1541ZM41.2892 54.5013L47.2145 53.5575L47.2139 53.5533L41.2892 54.5013ZM40.9789 54.1502L38.4331 59.5833L38.4404 59.5868L38.4478 59.5902L40.9789 54.1502ZM36.4603 52.0293L33.8897 57.4507L33.8901 57.4509L36.4603 52.0293ZM35.3174 48.7147L29.9524 46.0283L29.9515 46.0302L35.3174 48.7147ZM37.505 44.3564L32.1578 41.6348L32.1553 41.6396L37.505 44.3564ZM37.5095 43.7885L32.1607 46.5071L32.165 46.5154L37.5095 43.7885ZM35.2711 39.331L29.9033 42.0118L29.9041 42.0134L35.2711 39.331ZM35.0964 37.345L40.6471 39.6232L40.6472 39.6229L35.0964 37.345ZM36.2349 36.2109L38.7892 41.6401L38.7946 41.6376L36.2349 36.2109ZM41.0571 33.949L38.5227 28.5105L38.5225 28.5106L41.0571 33.949ZM41.2892 33.6398L47.2113 34.6037L47.2115 34.6024L41.2892 33.6398ZM42.1274 28.586L36.2112 27.5866L36.2111 27.5877L42.1274 28.586ZM44.4925 26.5938L44.4607 32.5937L54.2245 32.6455L49.8596 23.9115L44.4925 26.5938ZM43.8974 32.5631C43.883 32.5617 43.9067 32.5636 43.9842 32.5763C44.0609 32.5889 44.1615 32.6071 44.3034 32.6347C44.4558 32.6643 44.5915 32.692 44.7953 32.7325C44.9809 32.7695 45.2002 32.8125 45.4316 32.8543L47.5647 21.0454C47.3913 21.0141 45.9728 20.7105 45.0864 20.6222L43.8974 32.5631ZM45.4322 32.8544C46.3977 33.0287 47.361 33.2083 48.3221 33.3936L50.5941 21.6106C49.5842 21.4159 48.5741 21.2277 47.5641 21.0453L45.4322 32.8544ZM48.3202 33.3932C48.9252 33.5101 49.9376 33.6217 51.1301 33.3206C52.3735 33.0066 53.2976 32.3766 53.9236 31.7939L45.7482 23.0097C46.2593 22.534 47.0709 21.9689 48.1923 21.6857C49.2629 21.4154 50.1439 21.5237 50.596 21.611L48.3202 33.3932ZM53.925 31.7926C55.0492 30.7456 56.5938 29.3736 57.9242 28.0605L49.4945 19.52C48.3136 20.6855 47.2064 21.6517 45.7468 23.011L53.925 31.7926ZM57.9239 28.0608C57.37 28.6074 56.4828 29.022 55.4591 28.9996C54.517 28.979 53.6868 28.5934 53.0931 28.0103L61.5012 19.4486C58.4389 16.4412 53.1532 15.9094 49.4949 19.5196L57.9239 28.0608ZM53.0914 28.0087C54.3766 29.2719 55.9307 30.6582 57.0025 31.6634L65.2115 22.9106C63.7486 21.5385 62.6954 20.6223 61.5029 19.4502L53.0914 28.0087ZM57.0035 31.6644C57.4222 32.0569 58.2181 32.7194 59.4052 33.1367C60.6602 33.578 61.8291 33.5661 62.7365 33.4145L60.7588 21.5786C61.3894 21.4732 62.3337 21.4463 63.3854 21.8161C64.3692 22.162 64.9832 22.6966 65.2105 22.9096L57.0035 31.6644ZM62.7345 33.4148C64.1965 33.171 66.3967 32.8626 68.1791 32.5325L65.994 20.7331C64.2317 21.0595 62.8547 21.2291 60.7608 21.5782L62.7345 33.4148ZM68.1796 32.5324C66.9826 32.7542 65.9334 32.3612 65.268 31.8528C64.6874 31.4092 64.1216 30.6756 63.929 29.5905L75.7444 27.4934C75.0646 23.6631 71.1655 19.7749 65.9935 20.7332L68.1796 32.5324ZM63.9292 29.5916C64.1728 30.9625 64.3864 32.2961 64.6327 33.7633L76.4671 31.7764C76.2402 30.4251 76.0006 28.9356 75.7442 27.4923L63.9292 29.5916ZM64.6328 33.7635C64.6619 33.9369 64.6924 34.0821 64.706 34.1469C64.7098 34.1646 64.7133 34.1813 64.7157 34.1925C64.7185 34.2054 64.7199 34.2121 64.7212 34.2184C64.7239 34.2308 64.7225 34.2248 64.7197 34.2106C64.7147 34.185 64.6954 34.0865 64.6776 33.9484C64.6594 33.8074 64.6389 33.5968 64.6381 33.3371L76.6381 33.3005C76.636 32.6267 76.5322 32.0867 76.4909 31.8781C76.479 31.8181 76.4681 31.7663 76.461 31.733C76.4441 31.6527 76.4585 31.7212 76.4471 31.6672C76.4414 31.6405 76.4533 31.6942 76.4671 31.7762L64.6328 33.7635ZM64.6381 33.3346C64.6418 34.7488 65.0747 36.3274 66.2141 37.6779C67.1853 38.829 68.3129 39.3683 68.768 39.5739L73.7091 28.6384C73.7942 28.6769 74.6221 29.0345 75.3858 29.9397C76.3178 31.0443 76.6355 32.3128 76.6381 33.303L64.6381 33.3346ZM68.7656 39.5729C70.1952 40.2195 71.6202 40.8973 73.1074 41.6044L78.2607 30.7673C76.7924 30.0691 75.2631 29.3414 73.7115 28.6395L68.7656 39.5729ZM73.1083 41.6049C72.6428 41.3836 71.7229 40.744 71.267 39.4292C70.8115 38.1154 71.1381 37.047 71.363 36.5912L82.1246 41.9004C82.984 40.1584 83.4262 37.8669 82.6048 35.498C81.7831 33.1282 80.0161 31.6017 78.2598 30.7669L73.1083 41.6049ZM71.3629 36.5913C70.6311 38.0748 69.8889 39.5538 69.1368 41.0295L79.8283 46.4785C80.603 44.9584 81.3687 43.4327 82.1247 41.9002L71.3629 36.5913ZM69.1356 41.0318C68.7678 41.7542 68.2915 42.9992 68.4297 44.5847C68.5646 46.1327 69.2216 47.2346 69.6114 47.7923L79.4474 40.9183C79.6915 41.2676 80.266 42.185 80.3843 43.5426C80.5059 44.9376 80.079 45.9862 79.8295 46.4762L69.1356 41.0318ZM69.6076 47.7869C70.5927 49.1998 71.5719 50.6228 72.5521 52.0559L82.4567 45.281C81.4648 43.8309 80.4639 42.3762 79.4512 40.9237L69.6076 47.7869ZM72.5522 52.0561C72.1288 51.4371 71.7906 50.4965 71.9972 49.3384C72.2495 47.9239 73.1889 46.9196 74.0791 46.4987L79.2087 57.347C81.638 56.1983 83.3445 54.0591 83.8107 51.4456C84.2311 49.0884 83.5536 46.8845 82.4566 45.2809L72.5522 52.0561ZM74.0793 46.4986C72.5252 47.2333 71.013 47.949 69.4966 48.6442L74.4973 59.5526C76.0904 58.8223 77.6698 58.0746 79.2085 57.3471L74.0793 46.4986ZM69.5 48.6426C68.7029 49.0075 67.6692 49.6569 66.8332 50.8074C66.0189 51.9282 65.7392 53.0505 65.6275 53.7547L77.4791 55.6357C77.4142 56.0446 77.2158 56.9328 76.5412 57.8612C75.845 58.8194 75.0098 59.318 74.4939 59.5541L69.5 48.6426ZM65.6271 53.757C65.3781 55.3296 65.1157 56.9057 64.8444 58.4879L76.6717 60.5163C76.9495 58.8965 77.2206 57.2684 77.4795 55.6335L65.6271 53.757ZM64.8444 58.4877C65.0986 57.0059 66.2811 55.7883 67.9062 55.5817L69.419 67.486C73.1401 67.0131 76.0525 64.126 76.6717 60.5165L64.8444 58.4877ZM67.9072 55.5816C68.2278 55.5409 68.4931 55.5433 68.6762 55.5544C68.8529 55.5651 68.9698 55.5852 68.9847 55.5878C68.9938 55.5894 68.9891 55.5887 68.959 55.5828C68.921 55.5753 68.8932 55.5695 68.8164 55.554C68.7528 55.5411 68.66 55.5224 68.5572 55.5032C68.4526 55.4836 68.3238 55.4609 68.1789 55.439L66.3872 67.3045C66.3395 67.2973 66.3242 67.2929 66.4347 67.3152C66.5028 67.329 66.727 67.3757 66.9517 67.4143C67.4192 67.4947 68.3243 67.6249 69.4179 67.4861L67.9072 55.5816ZM68.1804 55.4392C66.6343 55.2053 65.088 54.9552 63.5006 54.6996L61.593 66.547C63.162 66.7996 64.7709 67.06 66.3856 67.3042L68.1804 55.4392ZM63.5026 54.6999C62.6627 54.5644 61.5941 54.5569 60.4427 54.9325C59.3184 55.2992 58.5153 55.9014 58.0026 56.3796L66.188 65.1546C65.8109 65.5063 65.1421 66.0219 64.1638 66.3409C63.1585 66.6688 62.2479 66.6527 61.591 66.5467L63.5026 54.6999ZM57.9999 56.3822C56.6704 57.6239 55.3388 58.8575 53.9903 60.1099L62.1565 68.9027C63.4901 67.6641 64.8449 66.409 66.1908 65.152L57.9999 56.3822ZM53.9903 60.1099C55.3244 58.8709 57.4876 58.8124 58.8959 60.1082L50.7707 68.9389C54.0396 71.9466 58.9707 71.8614 62.1565 68.9027L53.9903 60.1099ZM58.8958 60.1081C57.6044 58.9199 56.326 57.7368 55.0617 56.5482L46.8424 65.2914C48.1507 66.5213 49.4639 67.7366 50.7708 68.939L58.8958 60.1081ZM55.0632 56.5496C54.5538 56.0704 53.7003 55.3935 52.4679 54.9829C51.193 54.5581 50.0128 54.5824 49.0955 54.7399L51.1254 66.5669C50.5653 66.6631 49.6806 66.7028 48.6745 66.3675C47.7109 66.0465 47.0996 65.5334 46.8408 65.2899L55.0632 56.5496ZM49.1002 54.7391C47.3424 55.0393 45.7663 55.2697 43.8607 55.5802L45.7906 67.424C47.4075 67.1605 49.3616 66.8682 51.1207 66.5677L49.1002 54.7391ZM43.8619 55.58C45.6913 55.2823 47.2413 56.3511 47.8104 57.7025L36.7513 62.3605C38.2101 65.8239 41.8439 68.0663 45.7894 67.4242L43.8619 55.58ZM47.8117 57.7056C47.8898 57.8912 47.9314 58.0376 47.9514 58.1175C47.9703 58.193 47.9732 58.2231 47.9645 58.1686C47.9604 58.1426 47.955 58.1054 47.9468 58.0466C47.9374 57.9785 47.9307 57.9272 47.9171 57.8265C47.8947 57.6599 47.8579 57.3903 47.805 57.095L35.9934 59.2132C35.9968 59.2322 36.0045 59.2797 36.0248 59.4305C36.0402 59.5447 36.0729 59.796 36.1113 60.0396C36.1909 60.5439 36.3497 61.4054 36.75 62.3574L47.8117 57.7056ZM47.8057 57.0991C47.5986 55.9398 47.4069 54.7655 47.2145 53.5575L35.3639 55.445C35.5599 56.6756 35.7656 57.9377 35.9927 59.2091L47.8057 57.0991ZM47.2139 53.5533C47.0092 52.2742 46.4168 51.0164 45.3978 50.0094C44.5557 49.1772 43.6662 48.7829 43.5101 48.7102L38.4478 59.5902C38.4474 59.59 37.6968 59.27 36.9628 58.5447C36.052 57.6446 35.5369 56.5261 35.3646 55.4493L47.2139 53.5533ZM43.5248 48.7171C41.9996 48.0024 40.5178 47.3127 39.0306 46.6077L33.8901 57.4509C35.4097 58.1713 36.9448 58.8859 38.4331 59.5833L43.5248 48.7171ZM39.031 46.6079C39.6743 46.9129 40.4422 47.5843 40.8177 48.6769C41.1923 49.767 41.0008 50.7648 40.6834 51.3992L29.9515 46.0302C28.9778 47.9764 28.692 50.3158 29.4693 52.5774C30.2474 54.8415 31.9148 56.5143 33.8897 57.4507L39.031 46.6079ZM40.6825 51.4011C41.4201 49.928 42.1289 48.5024 42.8547 47.0732L32.1553 41.6396C31.409 43.1093 30.6702 44.5948 29.9524 46.0283L40.6825 51.4011ZM42.8523 47.078C43.1667 46.4601 43.5658 45.4542 43.5847 44.161C43.6039 42.8425 43.2211 41.7812 42.854 41.0617L32.165 46.5154C31.9028 46.0015 31.5694 45.1227 31.586 43.986C31.6022 42.8746 31.9466 42.0498 32.1578 41.6348L42.8523 47.078ZM42.8583 41.07C42.1164 39.6104 41.386 38.145 40.6382 36.6487L29.9041 42.0134C30.6429 43.4917 31.3958 45.0021 32.1607 46.5071L42.8583 41.07ZM40.639 36.6503C40.6814 36.7353 40.85 37.0902 40.9164 37.6507C40.9902 38.2728 40.9157 38.9689 40.6471 39.6232L29.5458 35.0667C28.359 37.9582 29.1578 40.5191 29.9033 42.0118L40.639 36.6503ZM40.6472 39.6229C40.4304 40.1512 40.1055 40.6151 39.7245 40.9832C39.3593 41.3359 39.0115 41.5355 38.7892 41.6401L33.6805 30.7818C32.1572 31.4985 30.4653 32.8262 29.5457 35.067L40.6472 39.6229ZM38.7946 41.6376C40.3936 40.8833 41.9922 40.1328 43.5916 39.3874L38.5225 28.5106C36.903 29.2654 35.2872 30.024 33.6752 30.7843L38.7946 41.6376ZM43.5914 39.3875C44.2439 39.0835 45.208 38.5056 46.0144 37.432C46.8154 36.3655 47.0996 35.29 47.2113 34.6037L35.3672 32.6758C35.4532 32.1472 35.6924 31.1932 36.4194 30.2254C37.1517 29.2504 38.0125 28.7483 38.5227 28.5105L43.5914 39.3875ZM47.2115 34.6024C47.4832 32.931 47.7613 31.2585 48.0438 29.5842L36.2111 27.5877C35.9255 29.2804 35.6433 30.9771 35.367 32.6771L47.2115 34.6024ZM48.0436 29.5854C47.9336 30.2365 47.5742 31.0473 46.8133 31.6982C46.0399 32.3599 45.1532 32.5974 44.4607 32.5937L44.5243 20.5939C40.2339 20.5711 36.8879 23.5811 36.2112 27.5866L48.0436 29.5854ZM49.8596 23.9115L49.859 23.9104L39.1249 29.2749L39.1254 29.276L49.8596 23.9115Z" fill="#F89C7B" mask="url(#path-2-inside-1_4826_43705)"/>
<path d="M74.244 63.9744C73.6913 64.7489 73.0147 65.4456 72.1891 66.0097C70.8506 66.9242 69.2983 67.3675 67.6278 67.3884L74.244 63.9744ZM74.244 63.9744C74.8578 65.1813 75.4718 66.3885 76.0866 67.5965C76.751 68.9022 77.4161 70.2081 78.0812 71.5139C77.5962 71.4465 77.1111 71.3793 76.6262 71.3122L76.215 74.2839L76.6262 71.3122C76.2046 71.2538 75.7923 71.1979 75.3848 71.1426C74.639 71.0415 73.9091 70.9425 73.1667 70.8347L73.1667 70.8346C72.6834 70.7644 71.8829 70.7497 71.0575 71.2113C70.2998 71.6349 69.9241 72.2451 69.7907 72.4738L69.7871 72.4801C68.9623 73.9024 68.1367 75.3242 67.3106 76.7461C66.7899 75.6856 66.2683 74.6236 65.7433 73.5557L74.244 63.9744ZM82.7764 75.1958C82.8719 75.2091 82.9674 75.2224 83.0629 75.2356C83.0769 75.2376 83.0913 75.2407 83.1059 75.2438C83.1661 75.2565 83.2288 75.2698 83.2683 75.2083C83.3038 75.1532 83.2746 75.1 83.2463 75.0483C83.2377 75.0326 83.2291 75.017 83.2225 75.0016M82.7764 75.1958L80.5385 74.8845C80.4592 74.8735 80.3799 74.8624 80.3005 74.8514C80.3477 74.402 80.4993 73.9676 80.7452 73.5853C80.7456 73.5847 80.746 73.5841 80.7464 73.5835C81.0181 73.1618 81.4261 72.7743 81.9631 72.5248C82.3498 73.2839 82.7365 74.0431 83.1231 74.8023C83.1233 74.8026 83.1235 74.8029 83.1236 74.8033C83.1318 74.8194 83.1401 74.8356 83.1483 74.8517M82.7764 75.1958L83.0581 75.0732L83.0583 75.0731L83.0872 75.0605L83.0875 75.0604L83.2225 75.0016M82.7764 75.1958L82.7715 75.1952L83.0572 75.0726L83.0574 75.0725L83.0874 75.0596L83.0876 75.0595L83.2225 75.0016M83.2225 75.0016C83.206 74.9636 83.187 74.9269 83.168 74.8902C83.1614 74.8774 83.1548 74.8645 83.1483 74.8517M83.1483 74.8517L83.1144 74.869L83.1138 74.8693L82.9061 74.975L82.9058 74.9752L82.5377 75.1627L83.1483 74.8517ZM63.8446 66.9707C63.7491 67.0557 63.6547 67.1395 63.5612 67.2226C63.3399 67.4192 63.1239 67.6112 62.9111 67.802C63.7562 69.5125 64.5972 71.2237 65.4367 72.9318C65.5388 73.1397 65.641 73.3476 65.7432 73.5554L63.8446 66.9707ZM63.8446 66.9707C64.0232 66.9953 64.2026 67.0189 64.3783 67.0402C64.6381 67.0717 64.8396 67.1039 65.0848 67.1431C65.263 67.1716 65.4643 67.2037 65.7279 67.242C66.2553 67.3187 66.9112 67.3974 67.6267 67.3884L63.8446 66.9707Z" fill="#F89C7B" stroke="#F89C7B" stroke-width="6"/>
<path d="M45.0063 76.6641C45.1329 76.4067 45.2594 76.1494 45.386 75.892C46.7114 73.1968 48.0377 70.4997 49.3673 67.8038C49.1752 67.6316 48.9805 67.4584 48.7812 67.2812C48.6652 67.178 48.5476 67.0735 48.4282 66.967C48.406 66.9702 48.3838 66.9734 48.3616 66.9765C47.6889 67.0728 47.0318 67.1668 46.3587 67.2696L45.0063 76.6641ZM45.0063 76.6641C44.1745 75.187 43.3443 73.7111 42.5167 72.2335L45.0063 76.6641ZM34.153 71.2243C35.7958 70.9974 37.4373 70.7698 39.0786 70.5395L39.0823 70.539C39.3793 70.4977 40.121 70.4198 40.9438 70.7826C41.8249 71.1711 42.2919 71.832 42.5157 72.2317L34.153 71.2243ZM34.153 71.2243C34.1779 71.1745 34.2029 71.1247 34.2278 71.0749L34.153 71.2243ZM37.7547 64.0318C39.0705 65.7669 41.0197 66.9124 43.0531 67.2929L43.0535 67.293C44.3315 67.532 45.4982 67.401 46.3587 67.2696L37.7547 64.0318ZM37.7547 64.0318C36.5792 66.3792 35.4036 68.7266 34.2281 71.0741L37.7547 64.0318ZM50.2107 66.0951C50.2097 66.0969 50.2088 66.0988 50.2079 66.1007C50.2087 66.099 50.2095 66.0974 50.2102 66.096L50.2107 66.0951Z" fill="#F89C7B" stroke="#F89C7B" stroke-width="6"/>
</g>
<defs>
<filter id="filter0_d_4826_43705" x="0" y="0" width="116" height="116" filterUnits="userSpaceOnUse" color-interpolation-filters="sRGB">
<feFlood flood-opacity="0" result="BackgroundImageFix"/>
<feColorMatrix in="SourceAlpha" type="matrix" values="0 0 0 0 0 0 0 0 0 0 0 0 0 0 0 0 0 0 127 0" result="hardAlpha"/>
<feOffset dx="2" dy="5"/>
<feGaussianBlur stdDeviation="4"/>
<feComposite in2="hardAlpha" operator="out"/>
<feColorMatrix type="matrix" values="0 0 0 0 0 0 0 0 0 0 0 0 0 0 0 0 0 0 0.1 0"/>
<feBlend mode="normal" in2="BackgroundImageFix" result="effect1_dropShadow_4826_43705"/>
<feBlend mode="normal" in="SourceGraphic" in2="effect1_dropShadow_4826_43705" result="shape"/>
</filter>
<clipPath id="clip0_4826_43705">
<rect width="54.2857" height="60" fill="white" transform="translate(29 23)"/>
</clipPath>
</defs>
</svg>
