<svg width="116" height="116" viewBox="0 0 116 116" fill="none" xmlns="http://www.w3.org/2000/svg">
<g filter="url(#filter0_d_4844_16025)">
<rect x="6" y="3" width="100" height="100" rx="23" fill="white"/>
</g>
<path d="M41.6946 48.0581C44.2789 45.5626 47.7059 43.7315 51.9727 42.5104C52.4167 42.3854 52.6286 42.3261 52.8264 42.2933C53.472 42.1903 54.5418 41.9219 55.408 41.0334C55.6256 40.8103 55.8055 40.5747 55.9529 40.332C56.0578 40.5065 56.1796 40.678 56.3203 40.8447C57.0465 41.7051 57.9701 42.0639 58.5805 42.2359L58.5841 42.2369C59.0563 42.3692 59.4945 42.4862 59.9077 42.5965C61.0504 42.9016 62.0024 43.1557 62.9541 43.5432C69.8078 46.3488 74.1262 50.9643 75.5641 58.1365C75.8076 59.3586 76.3149 60.8811 77.7291 62.1154C77.2581 62.1897 76.7194 62.2053 75.9855 62.2053L75.9818 62.2053C70.9656 62.2115 65.9523 62.2107 60.9355 62.2099C59.2622 62.2097 57.5885 62.2094 55.9141 62.2094H54.6708L54.6666 62.2136C53.4061 62.2138 52.1462 62.2142 50.8867 62.2146C45.8703 62.2161 40.86 62.2177 35.8459 62.2053H35.8386C34.9872 62.2053 34.5324 62.1867 34.1886 62.103C35.4046 60.8521 35.9677 59.497 36.2801 58.1293L36.2818 58.1218C37.2578 53.7972 39.1297 50.535 41.6946 48.0581ZM55.9543 35.9299C55.8184 35.7024 55.657 35.4861 55.4683 35.2858C55.7934 35.2849 56.1186 35.2851 56.4439 35.2865C56.2516 35.4887 56.0895 35.705 55.9543 35.9299ZM51.8796 36.3685L51.8787 36.3686C51.9117 36.3606 51.9154 36.3628 51.8796 36.3685ZM60.0562 33.9027C60.0562 33.9027 60.0553 33.9032 60.0533 33.9041C60.0552 33.9031 60.0562 33.9027 60.0562 33.9027ZM60.2064 36.4603C60.1926 36.4564 60.1952 36.4563 60.211 36.4616C60.2094 36.4612 60.2079 36.4608 60.2064 36.4603ZM77.8696 62.0235C77.8696 62.0235 77.8696 62.0242 77.8695 62.0256L77.8696 62.0235Z" stroke="#F89C7B" stroke-width="6"/>
<path d="M34.4877 67.2822L34.4884 67.7822C48.8929 67.7616 63.2974 67.7616 77.7019 67.7822H77.7026C78.6818 67.7822 79.681 67.8973 80.6686 68.0674C81.8798 68.2783 82.856 68.8491 83.4842 69.8932L83.4843 69.8935C83.991 70.7344 84.2547 71.4551 83.925 72.127L83.9249 72.1271C83.8021 72.3776 83.6231 72.4736 83.3336 72.5108C83.1764 72.5309 82.9994 72.5305 82.7951 72.5223C82.74 72.5201 82.6806 72.5171 82.6188 72.514C82.4695 72.5066 82.3065 72.4984 82.1583 72.4984L82.1574 72.4984C74.8759 72.5122 67.5944 72.5116 60.3123 72.511C59.0225 72.5109 57.7326 72.5108 56.4428 72.5108V72.5067H55.9428C53.466 72.5067 50.989 72.5074 48.5119 72.508C42.3188 72.5097 36.1254 72.5114 29.9338 72.5026H29.9331C29.3155 72.5026 28.8575 72.4395 28.5352 72.3313C28.2171 72.2244 28.0709 72.0882 28.0021 71.9627C27.9322 71.8352 27.894 71.6311 27.9715 71.2918C28.0496 70.95 28.236 70.5153 28.5553 69.9771C29.1842 68.917 30.1192 68.283 31.3119 68.0846C32.3723 67.9097 33.439 67.7862 34.4896 67.7822L34.4877 67.2822ZM34.4877 67.2822C48.8926 67.2616 63.2976 67.2616 77.7026 67.2822L29.9331 73.0026C27.3552 73.0026 26.7951 71.964 28.1253 69.722C28.8295 68.5351 29.8919 67.8138 31.2303 67.5913C32.3051 67.4141 33.4005 67.2863 34.4877 67.2822Z" fill="#F89C7B" stroke="#F89C7B"/>
<defs>
<filter id="filter0_d_4844_16025" x="0" y="0" width="116" height="116" filterUnits="userSpaceOnUse" color-interpolation-filters="sRGB">
<feFlood flood-opacity="0" result="BackgroundImageFix"/>
<feColorMatrix in="SourceAlpha" type="matrix" values="0 0 0 0 0 0 0 0 0 0 0 0 0 0 0 0 0 0 127 0" result="hardAlpha"/>
<feOffset dx="2" dy="5"/>
<feGaussianBlur stdDeviation="4"/>
<feComposite in2="hardAlpha" operator="out"/>
<feColorMatrix type="matrix" values="0 0 0 0 0 0 0 0 0 0 0 0 0 0 0 0 0 0 0.1 0"/>
<feBlend mode="normal" in2="BackgroundImageFix" result="effect1_dropShadow_4844_16025"/>
<feBlend mode="normal" in="SourceGraphic" in2="effect1_dropShadow_4844_16025" result="shape"/>
</filter>
</defs>
</svg>
