<svg width="116" height="116" viewBox="0 0 116 116" fill="none" xmlns="http://www.w3.org/2000/svg">
<g filter="url(#filter0_d_4844_15999)">
<rect x="6" y="3" width="100" height="100" rx="23" fill="white"/>
</g>
<g clip-path="url(#clip0_4844_15999)">
<path d="M79.5437 56.1728C79.5437 63.4475 79.535 70.7208 79.5611 77.9955C79.5629 78.583 79.3611 78.7146 78.6429 78.7132C63.5129 78.6952 48.3847 78.6938 33.2548 78.7105C32.5904 78.7105 32.4287 78.5774 32.4287 78.062C32.4496 63.4225 32.4531 48.7817 32.4391 34.1409C32.4391 33.6504 32.6322 33.4827 33.213 33.4855C36.0808 33.4979 38.9502 33.4217 41.818 33.534C42.2893 33.552 42.4249 33.721 42.4249 34.0453C42.4249 34.7617 42.4162 35.4766 42.4301 36.193C42.4388 36.6572 42.1988 36.8554 41.5971 36.8429C40.4963 36.8193 39.3954 36.8346 38.2929 36.8387C36.9364 36.8443 36.5868 37.1173 36.5851 38.1842C36.5816 42.1098 36.5851 46.0353 36.5851 49.9623C36.5851 57.9298 36.5851 65.8959 36.5851 73.8634C36.5851 75.1895 36.8425 75.4029 38.4842 75.4029C50.2229 75.4043 61.9599 75.4043 73.6987 75.4029C75.0674 75.4029 75.41 75.1355 75.41 74.0644C75.4117 62.1477 75.4117 50.2325 75.41 38.3159C75.41 37.0521 75.1334 36.8415 73.5231 36.8387C72.4796 36.836 71.4362 36.8193 70.3927 36.8429C69.7858 36.8568 69.5562 36.6475 69.5649 36.1875C69.5771 35.5182 69.5928 34.8476 69.558 34.1783C69.5336 33.7058 69.7632 33.5076 70.3545 33.5076C72.2379 33.5062 74.1213 33.4855 76.0047 33.4771C76.8447 33.473 77.6881 33.5062 78.5264 33.4688C79.2933 33.4342 79.5785 33.6185 79.575 34.2808C79.5385 40.0535 79.549 45.8275 79.5472 51.6001C79.5472 53.1243 79.5472 54.6486 79.5472 56.1728H79.5437Z" fill="#F89C7B"/>
<path d="M55.9913 39.7473C52.5445 39.7473 49.0994 39.7501 45.6525 39.7459C43.8926 39.7432 43.2074 39.2457 43.1796 37.8531C43.1344 35.7081 43.157 33.5617 43.1344 31.4168C43.1291 30.8736 43.3709 30.6325 44.1013 30.6436C46.0404 30.6727 47.9812 30.6394 49.922 30.6602C50.4837 30.6657 50.748 30.5092 50.8906 30.0727C51.4054 28.5055 52.8488 27.6921 54.7149 27.3928C57.84 26.8926 60.739 28.2201 61.1651 30.2279C61.2573 30.6643 61.6781 30.6533 62.099 30.6533C64.0398 30.6505 65.9806 30.6685 67.9197 30.6436C68.5857 30.6352 68.8622 30.8154 68.8588 31.3558C68.8414 33.5714 68.8744 35.7857 68.8414 38.0014C68.824 39.164 68.024 39.7404 66.5023 39.7445C62.9981 39.7542 59.4938 39.7473 55.9896 39.7473H55.9913Z" fill="#F89C7B"/>
<path d="M56.0017 47.9158C51.7131 47.9158 47.4246 47.9019 43.136 47.9282C42.3239 47.9324 41.9639 47.755 42.0265 47.0719C42.0839 46.4525 42.0595 45.8248 42.0317 45.2027C42.0108 44.7205 42.2856 44.5278 42.863 44.5486C43.0369 44.5556 43.2108 44.5472 43.3847 44.5472C51.7879 44.5472 60.1894 44.5472 68.5926 44.5472C69.9508 44.5472 69.9508 44.5514 69.9525 45.6087C69.9525 46.1172 69.9143 46.6271 69.9612 47.1315C70.0169 47.7412 69.7056 47.9296 68.9543 47.9255C64.6379 47.9033 60.3198 47.9144 56.0017 47.9144V47.9158Z" fill="#F89C7B"/>
<path d="M56.009 55.8098C51.837 55.8098 47.6632 55.8098 43.4911 55.8098C42.5242 55.8098 42.0402 55.4131 42.039 54.6195C42.039 54.0888 42.0547 53.5567 42.039 53.026C42.0268 52.6145 42.2686 52.4316 42.7712 52.4371C42.9746 52.4399 43.1764 52.433 43.3798 52.433C51.7831 52.433 60.1863 52.433 68.5895 52.433C69.9512 52.433 69.9512 52.4358 69.9529 53.4889C69.9529 53.9738 69.9112 54.4616 69.9616 54.9424C70.0312 55.6034 69.7129 55.8265 68.8747 55.8209C64.9044 55.7932 60.9358 55.8084 56.9655 55.8084C56.6472 55.8084 56.3273 55.8084 56.009 55.8084V55.8098Z" fill="#F89C7B"/>
<path d="M56.0017 63.7011C51.7131 63.7011 47.4245 63.6886 43.136 63.7122C42.3203 63.7163 41.9673 63.5251 42.0282 62.8462C42.0856 62.2032 42.0525 61.5533 42.0421 60.9076C42.0351 60.4989 42.2734 60.3118 42.7795 60.3256C42.9534 60.3298 43.1273 60.3229 43.3012 60.3229C51.7618 60.3229 60.2241 60.3229 68.6847 60.3229C69.9525 60.3229 69.9525 60.327 69.9543 61.3164C69.9543 61.8471 69.916 62.3806 69.9612 62.9085C70.0134 63.5154 69.7038 63.7136 68.9543 63.7094C64.984 63.69 61.0154 63.7011 57.0451 63.7011C56.6973 63.7011 56.3495 63.7011 56.0017 63.7011Z" fill="#F89C7B"/>
<path d="M55.9097 71.5896C51.6785 71.5896 47.4491 71.591 43.2179 71.5896C42.0719 71.5896 42.0458 71.5647 42.0406 70.6612C42.0371 70.0612 42.0614 69.4599 42.0371 68.8599C42.018 68.379 42.2875 68.1809 42.8701 68.2128C43.0144 68.2211 43.1605 68.2128 43.3049 68.2128C51.7655 68.2128 60.2278 68.2128 68.6884 68.2128C69.9492 68.2128 69.9492 68.2169 69.9527 69.2063C69.9527 69.737 69.9162 70.2705 69.9614 70.7984C70.0153 71.4109 69.6919 71.6007 68.9475 71.5979C65.2381 71.5785 61.5304 71.5896 57.8209 71.5896C57.1827 71.5896 56.5462 71.5896 55.9079 71.5896H55.9097Z" fill="#F89C7B"/>
</g>
<defs>
<filter id="filter0_d_4844_15999" x="0" y="0" width="116" height="116" filterUnits="userSpaceOnUse" color-interpolation-filters="sRGB">
<feFlood flood-opacity="0" result="BackgroundImageFix"/>
<feColorMatrix in="SourceAlpha" type="matrix" values="0 0 0 0 0 0 0 0 0 0 0 0 0 0 0 0 0 0 127 0" result="hardAlpha"/>
<feOffset dx="2" dy="5"/>
<feGaussianBlur stdDeviation="4"/>
<feComposite in2="hardAlpha" operator="out"/>
<feColorMatrix type="matrix" values="0 0 0 0 0 0 0 0 0 0 0 0 0 0 0 0 0 0 0.1 0"/>
<feBlend mode="normal" in2="BackgroundImageFix" result="effect1_dropShadow_4844_15999"/>
<feBlend mode="normal" in="SourceGraphic" in2="effect1_dropShadow_4844_15999" result="shape"/>
</filter>
<clipPath id="clip0_4844_15999">
<rect width="47.1429" height="51.4286" fill="white" transform="translate(32.4287 27.2861)"/>
</clipPath>
</defs>
</svg>
