<svg width="116" height="116" viewBox="0 0 116 116" fill="none" xmlns="http://www.w3.org/2000/svg">
<g filter="url(#filter0_d_4826_43669)">
<rect x="6" y="3" width="100" height="100" rx="23" fill="white"/>
</g>
<path d="M53.8492 72.1437C59.2836 72.1084 63.9749 70.2316 67.8329 66.4669C71.0242 63.3522 72.8981 59.5513 73.4951 55.1477C73.7889 52.9794 73.6966 50.8287 73.2503 48.6909C73.19 48.4021 73.2277 48.1895 73.4612 47.9907C74.6496 46.9804 75.8257 45.957 77.0141 44.9467C77.4623 44.565 77.4943 44.5873 77.6751 45.1389C78.4492 47.4976 78.8588 49.9242 78.8569 52.3953C78.8522 58.6979 76.7853 64.2623 72.5309 68.9937C68.8942 73.037 64.3827 75.6799 59.0143 76.7358C50.9913 78.3135 43.7688 76.499 37.534 71.2596C32.6864 67.1857 29.8868 61.9398 29.0638 55.717C27.7408 45.7184 32.854 35.8897 41.8242 31.0366C44.9364 29.3521 48.253 28.3473 51.7936 28.0808C58.3777 27.5849 64.2593 29.3753 69.4573 33.3768C69.897 33.7157 69.8886 33.7519 69.3923 34.0185C68.0693 34.7298 66.7613 35.4662 65.5127 36.2992C65.2226 36.4933 65.006 36.4859 64.7122 36.2964C60.8966 33.8402 56.6931 32.8122 52.1712 33.1762C47.8829 33.5216 44.0871 35.1143 40.8449 37.9197C37.0397 41.2126 34.7825 45.359 34.2071 50.3086C33.5423 56.0281 35.1309 61.1319 38.9719 65.4928C42.038 68.9733 45.9205 71.072 50.5195 71.8836C51.6185 72.0777 52.7287 72.1594 53.8492 72.1437Z" fill="#F89C7B"/>
<path d="M53.9875 64.4285C52.6327 64.4046 51.6367 63.7991 50.8075 62.8839C49.9699 61.9595 49.4639 60.8299 48.8381 59.7763C47.1347 56.907 45.2805 54.1375 43.1386 51.5604C42.509 50.8037 41.7932 50.1156 41.1542 49.3653C39.9437 47.9435 39.9896 47.1794 41.3481 45.9097C42.2898 45.0292 43.341 44.3412 44.6893 44.213C45.7171 44.1149 46.6297 44.409 47.4682 44.9697C49.1501 46.0947 50.5189 47.5294 51.7454 49.1051C52.5024 50.0781 53.1911 51.0959 53.8854 52.1119C54.1796 52.5425 54.1852 52.5452 54.4728 52.1339C56.402 49.3772 58.6048 46.8487 61.0867 44.5529C65.0987 40.8434 69.6288 37.898 74.7352 35.8404C76.8039 35.0067 78.9748 34.479 81.2366 34.4295C81.6461 34.4204 82.0508 34.4698 82.4312 34.6164C83.1302 34.8858 83.341 35.5206 82.9437 36.1445C82.5718 36.7299 82.0012 37.1138 81.4493 37.5132C76.788 40.8855 72.2916 44.4457 68.23 48.5106C64.5141 52.2301 61.321 56.3426 58.5251 60.7575C58.1138 61.4061 57.7315 62.0749 57.2799 62.6951C56.4667 63.8128 55.318 64.3552 53.9866 64.4285H53.9875Z" fill="#F89C7B"/>
<defs>
<filter id="filter0_d_4826_43669" x="0" y="0" width="116" height="116" filterUnits="userSpaceOnUse" color-interpolation-filters="sRGB">
<feFlood flood-opacity="0" result="BackgroundImageFix"/>
<feColorMatrix in="SourceAlpha" type="matrix" values="0 0 0 0 0 0 0 0 0 0 0 0 0 0 0 0 0 0 127 0" result="hardAlpha"/>
<feOffset dx="2" dy="5"/>
<feGaussianBlur stdDeviation="4"/>
<feComposite in2="hardAlpha" operator="out"/>
<feColorMatrix type="matrix" values="0 0 0 0 0 0 0 0 0 0 0 0 0 0 0 0 0 0 0.1 0"/>
<feBlend mode="normal" in2="BackgroundImageFix" result="effect1_dropShadow_4826_43669"/>
<feBlend mode="normal" in="SourceGraphic" in2="effect1_dropShadow_4826_43669" result="shape"/>
</filter>
</defs>
</svg>
