<svg width="116" height="116" viewBox="0 0 116 116" fill="none" xmlns="http://www.w3.org/2000/svg">
<g filter="url(#filter0_d_4826_43663)">
<rect x="6" y="3" width="100" height="100" rx="23" fill="white"/>
</g>
<path d="M65.3723 28C65.8895 28 66.4056 28 66.9227 28C67.0302 28.022 67.1365 28.0551 67.245 28.0661C72.171 28.5771 75.7902 31.022 78.1335 35.3469C78.9043 36.7687 79.2809 38.315 79.5467 39.8943V42.8679C79.4237 43.478 79.3296 44.0959 79.1746 44.6983C77.0848 52.7677 68.3237 56.9792 60.6346 53.6014C60.1706 53.3977 59.8904 53.4362 59.5316 53.7974C57.0298 56.3184 54.5137 58.8239 51.982 61.3151C51.6133 61.6774 51.6288 61.8911 51.9887 62.2391C53.3376 63.5453 54.661 64.8757 55.9866 66.2039C57.2624 67.4814 57.2613 68.6003 55.9866 69.8702C53.8093 72.0398 51.6243 74.2006 49.4537 76.3757C48.9997 76.8305 48.5002 77.1797 47.8734 77.3382H47.3196C46.6917 77.1863 46.1911 76.8393 45.7415 76.3834C44.6341 75.2589 43.5144 74.1466 42.3826 73.0453C42.0326 72.705 41.7547 72.1158 41.284 72.1169C40.8465 72.1169 40.5719 72.694 40.2242 73.0144C39.0226 74.1202 37.6427 74.5376 36.0524 74.064C34.482 73.5959 33.5927 72.4704 33.1431 70.9517V69.2997C33.4144 68.2732 34.0091 67.4616 34.7677 66.7281C36.2739 65.2699 37.7479 63.7776 39.2341 62.2997C44.0471 57.5155 48.8568 52.728 53.6798 47.9538C54.0142 47.6234 54.0984 47.3657 53.8869 46.9119C53.0629 45.141 52.6842 43.2743 52.6941 41.3128C52.7229 35.9207 56.0032 31.0628 61.03 29.0132C62.4254 28.4438 63.8817 28.163 65.3701 28L65.3723 28ZM61.0776 41.3767C61.0721 44.1719 63.318 46.445 66.101 46.4615C68.8907 46.478 71.1942 44.217 71.2075 41.4505C71.2208 38.6058 68.9992 36.3767 66.1475 36.3712C63.3069 36.3657 61.0831 38.5606 61.0776 41.3756V41.3767Z" fill="#F89C7B"/>
<defs>
<filter id="filter0_d_4826_43663" x="0" y="0" width="116" height="116" filterUnits="userSpaceOnUse" color-interpolation-filters="sRGB">
<feFlood flood-opacity="0" result="BackgroundImageFix"/>
<feColorMatrix in="SourceAlpha" type="matrix" values="0 0 0 0 0 0 0 0 0 0 0 0 0 0 0 0 0 0 127 0" result="hardAlpha"/>
<feOffset dx="2" dy="5"/>
<feGaussianBlur stdDeviation="4"/>
<feComposite in2="hardAlpha" operator="out"/>
<feColorMatrix type="matrix" values="0 0 0 0 0 0 0 0 0 0 0 0 0 0 0 0 0 0 0.1 0"/>
<feBlend mode="normal" in2="BackgroundImageFix" result="effect1_dropShadow_4826_43663"/>
<feBlend mode="normal" in="SourceGraphic" in2="effect1_dropShadow_4826_43663" result="shape"/>
</filter>
</defs>
</svg>
