<svg width="252" height="202" viewBox="0 0 252 202" fill="none" xmlns="http://www.w3.org/2000/svg">
<g clip-path="url(#clip0_4826_43067)">
<path fill-rule="evenodd" clip-rule="evenodd" d="M94.7241 0L154.174 37.1842L151.05 42.1986L94.7241 6.9685L38.3929 42.1991L35.269 37.1842L94.7241 0Z" fill="#D9D9D9"/>
<path fill-rule="evenodd" clip-rule="evenodd" d="M41.9978 177.817V109.836H36.0981V183.728H142.292V177.817H41.9978Z" fill="#D9D9D9"/>
<path d="M212.044 53.03H163.018C160.414 53.03 158.306 55.1435 158.306 57.7518V88.4911C158.306 88.4911 159.205 93.0058 164.758 93.0058C170.311 93.0058 170.732 87.5973 170.732 87.5973V82.9345C170.732 74.5624 177.502 67.779 185.857 67.779C194.212 67.779 200.982 74.5624 200.982 82.9345C200.982 91.3065 194.212 98.0899 185.857 98.0899C185.363 98.0899 184.876 98.0676 184.397 98.0159C179.087 97.8904 158.947 100.299 158.306 116.445V201.761C158.306 201.761 213.519 193.581 216.757 125.814V57.7446C216.757 55.1363 214.647 53.0229 212.044 53.0229V53.03Z" fill="#1E1E1E"/>
<path d="M251.454 58.6461C251.801 58.0847 252 57.4193 252 56.7102C252 54.678 250.356 53.0229 248.32 53.0229C246.661 53.0229 245.267 54.1166 244.802 55.6241L210.12 123.184C207.022 123.353 205.732 128.009 205.215 127.403C204.699 126.797 203.667 126.827 203.667 126.827C193.777 131.681 180.452 130.506 180.452 130.506L180.105 132.915C179.758 135.324 181.086 136.071 181.086 136.071L193.084 137.334C193.084 137.334 184.596 139.773 181.093 140.881C180.909 150.309 185.703 152.334 186.632 153.265C187.856 154.499 195.673 149.755 199.36 147.346C200.466 149.194 196.963 153.45 190.134 156.96C191.056 159.546 200.835 165.465 206.558 165.465C219.102 153.265 217.443 126.827 217.443 126.827L251.44 58.6385L251.454 58.6461Z" fill="#F89C7B"/>
<path d="M166.038 119.177C167.299 118.877 168.295 118.587 169.31 118.406C173.774 117.613 176.021 114.722 176.794 110.398C176.94 109.584 177.131 108.777 177.441 107.969C177.73 109.186 177.977 110.414 178.32 111.616C178.573 112.509 178.915 113.38 179.282 114.233C180.189 116.333 181.983 117.341 184.011 117.974C185.457 118.425 186.942 118.747 188.61 119.18C187.186 119.526 185.93 119.747 184.731 120.149C183.565 120.541 182.394 121.009 181.344 121.644C179.753 122.607 179.04 124.275 178.522 125.988C178.088 127.422 177.79 128.899 177.375 130.585C177.102 129.398 176.824 128.421 176.656 127.425C175.86 122.711 172.839 120.456 168.432 119.702C167.963 119.621 167.497 119.515 167.031 119.415C166.791 119.363 166.553 119.3 166.038 119.177Z" fill="white"/>
<path d="M145.871 101.985C146.566 101.985 147.163 102.256 147.665 102.797C148.205 103.299 148.475 103.918 148.475 104.652C148.475 105.386 148.205 106.005 147.665 106.507C147.163 107.009 146.566 107.26 145.871 107.26H133.028C132.102 107.26 131.311 107.589 130.656 108.246C130 108.864 129.672 109.637 129.672 110.565C129.672 111.376 129.942 112.091 130.482 112.709C131.022 113.289 131.678 113.617 132.449 113.695L143.036 115.028C144.078 115.183 145.042 115.511 145.929 116.014C146.855 116.477 147.646 117.096 148.301 117.869C148.957 118.603 149.458 119.453 149.805 120.419C150.191 121.347 150.384 122.332 150.384 123.376C150.384 124.573 150.153 125.694 149.69 126.738C149.265 127.781 148.667 128.689 147.896 129.462C147.125 130.235 146.218 130.853 145.177 131.317C144.136 131.742 143.017 131.955 141.821 131.955H128.053C127.32 131.955 126.703 131.704 126.201 131.201C125.7 130.699 125.449 130.08 125.449 129.346C125.449 128.612 125.7 127.994 126.201 127.491C126.703 126.989 127.32 126.738 128.053 126.738H141.821C142.747 126.738 143.538 126.409 144.194 125.752C144.849 125.095 145.177 124.303 145.177 123.376C145.177 122.603 144.907 121.907 144.367 121.289C143.827 120.671 143.171 120.323 142.4 120.245L131.813 118.912C130.772 118.796 129.788 118.487 128.862 117.984C127.975 117.482 127.204 116.864 126.548 116.129C125.892 115.395 125.372 114.545 124.986 113.579C124.639 112.613 124.465 111.608 124.465 110.565C124.465 109.405 124.678 108.304 125.102 107.26C125.565 106.217 126.182 105.309 126.953 104.536C127.725 103.763 128.631 103.164 129.672 102.739C130.714 102.275 131.832 102.043 133.028 102.043H145.871V101.985Z" fill="#231F20"/>
<path d="M91.4858 116.999C91.4858 114.873 91.8718 112.883 92.6429 111.028C93.4531 109.173 94.5523 107.569 95.9408 106.217C97.3293 104.825 98.9492 103.724 100.801 102.912C102.652 102.101 104.619 101.695 106.702 101.695C108.823 101.695 110.809 102.101 112.661 102.912C114.512 103.724 116.113 104.825 117.462 106.217C118.851 107.569 119.931 109.173 120.702 111.028C121.512 112.883 121.917 114.873 121.917 116.999C121.917 119.086 121.512 121.056 120.702 122.912C119.931 124.767 118.851 126.39 117.462 127.781C116.113 129.172 114.512 130.274 112.661 131.085C110.809 131.858 108.823 132.244 106.702 132.244C104.85 132.244 103.057 131.935 101.321 131.317C99.6242 130.66 98.0815 129.713 96.693 128.476V143.606C96.693 144.34 96.4423 144.959 95.9408 145.461C95.4393 145.963 94.8223 146.215 94.0894 146.215C93.3565 146.215 92.7395 145.963 92.2381 145.461C91.7366 144.959 91.4858 144.34 91.4858 143.606V116.999ZM106.702 127.027C108.09 127.027 109.382 126.776 110.578 126.274C111.812 125.732 112.873 125.018 113.76 124.129C114.685 123.201 115.399 122.138 115.9 120.94C116.44 119.704 116.71 118.39 116.71 116.999C116.71 115.608 116.44 114.313 115.9 113.115C115.399 111.878 114.685 110.815 113.76 109.927C112.873 108.999 111.812 108.284 110.578 107.782C109.382 107.241 108.09 106.97 106.702 106.97C105.313 106.97 104.002 107.241 102.767 107.782C101.572 108.284 100.511 108.999 99.5855 109.927C98.6985 110.815 97.9849 111.878 97.4448 113.115C96.9437 114.313 96.693 115.608 96.693 116.999C96.693 118.39 96.9437 119.704 97.4448 120.94C97.9849 122.138 98.6985 123.201 99.5855 124.129C100.511 125.018 101.572 125.732 102.767 126.274C104.002 126.776 105.313 127.027 106.702 127.027Z" fill="#231F20"/>
<path d="M73.0689 132.244C70.9861 132.244 69.0192 131.858 67.1679 131.085C65.3165 130.274 63.6966 129.172 62.308 127.781C60.9195 126.39 59.8204 124.767 59.0106 122.912C58.2391 121.056 57.8535 119.086 57.8535 116.999C57.8535 114.873 58.2391 112.883 59.0106 111.028C59.8204 109.173 60.9195 107.569 62.308 106.217C63.6966 104.825 65.3165 103.724 67.1679 102.912C69.0192 102.101 70.9861 101.695 73.0689 101.695C75.1903 101.695 77.1765 102.101 79.0278 102.912C80.8792 103.724 82.4798 104.825 83.8297 106.217C85.2182 107.569 86.3173 109.173 87.1271 111.028C87.9373 112.883 88.3421 114.873 88.3421 116.999C88.3421 119.086 87.9373 121.056 87.1271 122.912C86.3173 124.767 85.2182 126.39 83.8297 127.781C82.4798 129.172 80.8792 130.274 79.0278 131.085C77.1765 131.858 75.1903 132.244 73.0689 132.244ZM73.0689 127.027C74.4574 127.027 75.7493 126.776 76.945 126.274C78.179 125.732 79.2399 125.018 80.127 124.129C81.0526 123.201 81.7662 122.138 82.2677 120.94C82.8074 119.704 83.0775 118.39 83.0775 116.999C83.0775 115.608 82.8074 114.313 82.2677 113.115C81.7662 111.878 81.0526 110.815 80.127 109.927C79.2399 108.999 78.179 108.284 76.945 107.782C75.7493 107.241 74.4574 106.97 73.0689 106.97C71.6803 106.97 70.3691 107.241 69.1347 107.782C67.939 108.284 66.8785 108.999 65.9528 109.927C65.0658 110.815 64.3522 111.878 63.8121 113.115C63.311 114.313 63.0603 115.608 63.0603 116.999C63.0603 118.39 63.311 119.704 63.8121 120.94C64.3522 122.138 65.0658 123.201 65.9528 124.129C66.8785 125.018 67.939 125.732 69.1347 126.274C70.3691 126.776 71.6803 127.027 73.0689 127.027Z" fill="#231F20"/>
<path d="M143.365 55.9498H150.518V92.2534H150.188L129.123 71.7193V91.6356H121.991V55.3762H122.343L143.365 75.8657V55.9498Z" fill="#231F20"/>
<path d="M110.698 91.5914L108.453 86.629H94.2553L91.9882 91.5914H84.2837L101.233 55.1553H101.453L118.425 91.5914H110.698ZM97.0286 80.5412H105.679L101.365 71.0354L97.0286 80.5412Z" fill="#231F20"/>
<path d="M81.6642 63.0737H67.4006V70.0212H79.6394V77.1451H67.4006V84.4899H81.6642V91.5914H60.2686V56.0378H81.6642V63.0737Z" fill="#231F20"/>
<path d="M41.9986 84.4899H56.2622V91.5914H34.8667V56.0378H41.9986V84.4899Z" fill="#231F20"/>
<path d="M18.5561 92.2753C8.32054 92.2753 0 83.8279 0 73.8369C0 63.8013 8.43062 55.3097 18.4241 55.3097C23.0466 55.3762 27.1408 57.2068 30.8609 60.8016L26.7446 66.426C24.3233 64.0441 21.4177 62.5884 18.358 62.5884C12.6569 62.5884 7.21997 67.6611 7.21997 73.8806C7.21997 80.2108 12.855 85.1072 18.336 85.1072C21.5938 85.1072 24.4114 83.3645 26.7666 81.0487L30.8609 86.8276C27.7352 89.9375 23.9271 92.2753 18.5561 92.2753Z" fill="#231F20"/>
</g>
<defs>
<clipPath id="clip0_4826_43067">
<rect width="252" height="202" fill="white"/>
</clipPath>
</defs>
</svg>
