<svg width="60" height="95" viewBox="0 0 60 95" fill="none" xmlns="http://www.w3.org/2000/svg">
<path d="M59.545 4.75091C59.834 4.2766 60 3.71447 60 3.11536C60 1.39839 58.6288 0 56.9313 0C55.5479 0 54.3855 0.924084 53.9981 2.19768L25.0768 59.2775C22.4938 59.4208 21.4179 63.3539 20.9871 62.8423C20.5567 62.3303 19.6958 62.3552 19.6958 62.3552C11.4493 66.4569 0.337154 65.4642 0.337154 65.4642L0.0482125 67.4993C-0.241078 69.5345 0.866006 70.1653 0.866006 70.1653L10.8714 71.2327C10.8714 71.2327 3.79324 73.2931 0.871965 74.2293C0.718214 82.1954 4.71574 83.906 5.49045 84.6929C6.51138 85.7353 13.0299 81.7272 16.1045 79.692C17.0271 81.2529 14.1058 84.8489 8.41138 87.8143C9.18013 89.9991 17.3346 95 22.1064 95C32.5668 84.6929 31.1834 62.3552 31.1834 62.3552L59.5328 4.74451L59.545 4.75091Z" fill="#FFE9C6"/>
</svg>
