<svg width="50" height="50" viewBox="0 0 50 50" fill="none" xmlns="http://www.w3.org/2000/svg">
<path d="M0 24.7795C2.79385 24.1143 4.99973 23.4742 7.24933 23.0741C17.1371 21.3213 22.1145 14.9297 23.8264 5.36918C24.1492 3.56984 24.5725 1.78631 25.261 0C25.9001 2.69063 26.4472 5.40638 27.2063 8.06352C27.7683 10.0359 28.5246 11.9627 29.3387 13.8486C31.3483 18.4911 35.3209 20.7184 39.8135 22.1196C43.0158 23.1169 46.3065 23.8287 50 24.786C46.847 25.5499 44.0634 26.0383 41.4082 26.9268C38.8246 27.7939 36.2308 28.8285 33.9049 30.2324C30.3807 32.3611 28.8009 36.0491 27.6548 39.8366C26.6928 43.0064 26.0322 46.272 25.114 50C24.5083 47.3745 23.8943 45.2151 23.5221 43.012C21.7582 32.5909 15.0662 27.6069 5.30397 25.9387C4.2657 25.761 3.23298 25.5257 2.20028 25.3042C1.66905 25.1898 1.14061 25.0503 0 24.7795Z" fill="white"/>
</svg>
