<svg width="114" height="90" viewBox="0 0 114 90" fill="none" xmlns="http://www.w3.org/2000/svg">
<g clip-path="url(#clip0_4849_18828)">
<path fill-rule="evenodd" clip-rule="evenodd" d="M42.9753 0L69.6335 16.5672L68.2327 18.8014L42.9753 3.10477L17.7157 18.8016L16.3149 16.5672L42.9753 0Z" fill="#1E1E1E"/>
<path fill-rule="evenodd" clip-rule="evenodd" d="M19.3325 79.2251V48.9365H16.687V81.8589H64.3059V79.2251H19.3325Z" fill="#1E1E1E"/>
<path d="M95.5834 23.6272H73.5994C72.432 23.6272 71.4863 24.5688 71.4863 25.731V39.4267C71.4863 39.4267 71.8897 41.4382 74.3797 41.4382C76.8698 41.4382 77.0584 39.0285 77.0584 39.0285V36.951C77.0584 33.2208 80.0941 30.1985 83.8408 30.1985C87.5873 30.1985 90.6231 33.2208 90.6231 36.951C90.6231 40.6811 87.5873 43.7034 83.8408 43.7034C83.6191 43.7034 83.4009 43.6935 83.186 43.6704C80.8051 43.6145 71.7739 44.6878 71.4863 51.8812V89.8935C71.4863 89.8935 96.2448 86.2488 97.6965 56.0559V25.7278C97.6965 24.5656 96.7507 23.624 95.5834 23.624V23.6272Z" fill="#1E1E1E"/>
<path d="M113.255 26.1294C113.411 25.8793 113.5 25.5828 113.5 25.2669C113.5 24.3615 112.762 23.624 111.85 23.624C111.106 23.624 110.481 24.1113 110.272 24.783L94.7201 54.8838C93.3312 54.9594 92.7526 57.0335 92.521 56.7637C92.2895 56.4937 91.8266 56.5068 91.8266 56.5068C87.3921 58.6698 81.4167 58.1463 81.4167 58.1463L81.2613 59.2196C81.1057 60.2928 81.701 60.6255 81.701 60.6255L87.0813 61.1883C87.0813 61.1883 83.2751 62.2749 81.7042 62.7686C81.6216 66.9695 83.7712 67.8716 84.1878 68.2865C84.7368 68.8363 88.242 66.7226 89.8954 65.6493C90.3915 66.4725 88.8206 68.3688 85.7585 69.9326C86.1719 71.0848 90.5568 73.722 93.1229 73.722C98.7478 68.2865 98.0039 56.5068 98.0039 56.5068L113.249 26.126L113.255 26.1294Z" fill="white"/>
<path d="M74.9536 53.0989C75.5192 52.9648 75.9657 52.8358 76.4211 52.7552C78.4227 52.4019 79.4303 51.1138 79.7768 49.187C79.8422 48.8244 79.9279 48.465 80.0672 48.105C80.1966 48.6472 80.3074 49.1945 80.461 49.73C80.5748 50.1275 80.7279 50.5159 80.8927 50.8959C81.2995 51.8315 82.1037 52.2804 83.0131 52.5628C83.6614 52.7638 84.3275 52.9072 85.0752 53.1002C84.437 53.2541 83.8735 53.3525 83.336 53.5316C82.813 53.7064 82.2879 53.9149 81.817 54.1978C81.1036 54.6268 80.7838 55.37 80.5518 56.1334C80.3571 56.7722 80.2234 57.4303 80.0375 58.1816C79.9149 57.6525 79.7906 57.2173 79.7152 56.7733C79.3582 54.6731 78.0035 53.6687 76.0273 53.3325C75.8171 53.2967 75.6081 53.2492 75.399 53.2046C75.2915 53.1815 75.1845 53.1534 74.9536 53.0989Z" fill="white"/>
<path d="M65.9108 45.439C66.2221 45.439 66.4901 45.5595 66.715 45.8007C66.957 46.0245 67.0781 46.3 67.0781 46.6272C67.0781 46.9542 66.957 47.2298 66.715 47.4537C66.4901 47.6773 66.2221 47.7893 65.9108 47.7893H60.1516C59.7365 47.7893 59.3818 47.9357 59.0879 48.2284C58.7939 48.5038 58.647 48.8483 58.647 49.2615C58.647 49.623 58.7679 49.9416 59.0101 50.217C59.2523 50.4754 59.5463 50.6217 59.892 50.6562L64.6396 51.2502C65.1064 51.3192 65.5388 51.4654 65.9366 51.6893C66.3517 51.8959 66.7063 52.1713 67.0003 52.5158C67.2943 52.843 67.5192 53.2217 67.6747 53.6522C67.8478 54.0655 67.9342 54.5044 67.9342 54.9694C67.9342 55.503 67.8305 56.0025 67.6229 56.4673C67.4327 56.9322 67.1645 57.3368 66.8188 57.6812C66.4728 58.0257 66.0664 58.3011 65.5995 58.5077C65.1324 58.6971 64.6309 58.7918 64.0947 58.7918H57.9206C57.5919 58.7918 57.3153 58.6798 57.0904 58.456C56.8655 58.2323 56.7531 57.9567 56.7531 57.6297C56.7531 57.3025 56.8655 57.027 57.0904 56.8032C57.3153 56.5793 57.5919 56.4673 57.9206 56.4673H64.0947C64.5098 56.4673 64.8644 56.3209 65.1584 56.0282C65.4524 55.7355 65.5995 55.3827 65.5995 54.9694C65.5995 54.625 65.4784 54.315 65.2362 54.0396C64.9942 53.7642 64.7 53.6091 64.3542 53.5746L59.6067 52.9806C59.1398 52.929 58.6988 52.7912 58.2837 52.5673C57.8859 52.3437 57.5399 52.068 57.246 51.7408C56.952 51.4138 56.7184 51.0349 56.5455 50.6046C56.39 50.1741 56.312 49.7263 56.312 49.2615C56.312 48.745 56.4073 48.2543 56.5975 47.7893C56.8051 47.3245 57.0817 46.9198 57.4277 46.5754C57.7735 46.2312 58.1799 45.9642 58.647 45.7748C59.1138 45.5682 59.6154 45.4648 60.1516 45.4648H65.9108V45.439Z" fill="#231F20"/>
<path d="M41.5234 52.128C41.5234 51.1809 41.6965 50.2943 42.0423 49.4678C42.4056 48.6413 42.8985 47.9267 43.5211 47.3241C44.1437 46.7042 44.8701 46.2135 45.7003 45.8518C46.5305 45.4903 47.4124 45.3096 48.3464 45.3096C49.2975 45.3096 50.1883 45.4903 51.0185 45.8518C51.8486 46.2135 52.5664 46.7042 53.1717 47.3241C53.7943 47.9267 54.2785 48.6413 54.6243 49.4678C54.9876 50.2943 55.1691 51.1809 55.1691 52.128C55.1691 53.0578 54.9876 53.9359 54.6243 54.7624C54.2785 55.5889 53.7943 56.3121 53.1717 56.9319C52.5664 57.5516 51.8486 58.0425 51.0185 58.404C50.1883 58.7484 49.2975 58.9206 48.3464 58.9206C47.5162 58.9206 46.712 58.7828 45.9336 58.5073C45.1728 58.2146 44.481 57.7928 43.8584 57.2417V63.9827C43.8584 64.3099 43.746 64.5853 43.5211 64.8092C43.2962 65.0331 43.0196 65.145 42.6909 65.145C42.3623 65.145 42.0856 65.0331 41.8607 64.8092C41.6359 64.5853 41.5234 64.3099 41.5234 63.9827V52.128ZM48.3464 56.5961C48.969 56.5961 49.5483 56.4842 50.0845 56.2603C50.6378 56.0192 51.1136 55.7008 51.5113 55.3046C51.9264 54.8916 52.2464 54.4179 52.4711 53.8841C52.7133 53.3333 52.8344 52.7479 52.8344 52.128C52.8344 51.5081 52.7133 50.9312 52.4711 50.3976C52.2464 49.8465 51.9264 49.3731 51.5113 48.9771C51.1136 48.5638 50.6378 48.2453 50.0845 48.0214C49.5483 47.7803 48.969 47.6599 48.3464 47.6599C47.7237 47.6599 47.1358 47.7803 46.5823 48.0214C46.0461 48.2453 45.5705 48.5638 45.1554 48.9771C44.7577 49.3731 44.4377 49.8465 44.1955 50.3976C43.9708 50.9312 43.8584 51.5081 43.8584 52.128C43.8584 52.7479 43.9708 53.3333 44.1955 53.8841C44.4377 54.4179 44.7577 54.8916 45.1554 55.3046C45.5705 55.7008 46.0461 56.0192 46.5823 56.2603C47.1358 56.4842 47.7237 56.5961 48.3464 56.5961Z" fill="#231F20"/>
<path d="M33.2651 58.9206C32.3312 58.9206 31.4492 58.7484 30.6191 58.404C29.7889 58.0425 29.0625 57.5516 28.4398 56.9319C27.8172 56.3121 27.3243 55.5889 26.9612 54.7624C26.6153 53.9359 26.4424 53.0578 26.4424 52.128C26.4424 51.1809 26.6153 50.2943 26.9612 49.4678C27.3243 48.6413 27.8172 47.9267 28.4398 47.3241C29.0625 46.7042 29.7889 46.2135 30.6191 45.8518C31.4492 45.4903 32.3312 45.3096 33.2651 45.3096C34.2164 45.3096 35.107 45.4903 35.9372 45.8518C36.7674 46.2135 37.4851 46.7042 38.0904 47.3241C38.7131 47.9267 39.2059 48.6413 39.569 49.4678C39.9323 50.2943 40.1139 51.1809 40.1139 52.128C40.1139 53.0578 39.9323 53.9359 39.569 54.7624C39.2059 55.5889 38.7131 56.3121 38.0904 56.9319C37.4851 57.5516 36.7674 58.0425 35.9372 58.404C35.107 58.7484 34.2164 58.9206 33.2651 58.9206ZM33.2651 56.5961C33.8878 56.5961 34.4671 56.4842 35.0033 56.2603C35.5566 56.0192 36.0323 55.7008 36.4301 55.3046C36.8452 54.8916 37.1651 54.4179 37.39 53.8841C37.632 53.3333 37.7531 52.7479 37.7531 52.128C37.7531 51.5081 37.632 50.9312 37.39 50.3976C37.1651 49.8465 36.8452 49.3731 36.4301 48.9771C36.0323 48.5638 35.5566 48.2453 35.0033 48.0214C34.4671 47.7803 33.8878 47.6599 33.2651 47.6599C32.6425 47.6599 32.0545 47.7803 31.501 48.0214C30.9648 48.2453 30.4893 48.5638 30.0742 48.9771C29.6764 49.3731 29.3565 49.8465 29.1143 50.3976C28.8896 50.9312 28.7772 51.5081 28.7772 52.128C28.7772 52.7479 28.8896 53.3333 29.1143 53.8841C29.3565 54.4179 29.6764 54.8916 30.0742 55.3046C30.4893 55.7008 30.9648 56.0192 31.501 56.2603C32.0545 56.4842 32.6425 56.5961 33.2651 56.5961Z" fill="#231F20"/>
<path d="M64.7864 24.9279H67.9943V41.1028H67.8463L58.4002 31.9539V40.8276H55.2021V24.6724H55.3602L64.7864 33.8014V24.9279Z" fill="#231F20"/>
<path d="M50.1386 40.8082L49.1318 38.5972H42.7654L41.7487 40.8082H38.2939L45.8943 24.5742H45.993L53.6032 40.8082H50.1386ZM44.0089 35.8848H47.888L45.9535 31.6495L44.0089 35.8848Z" fill="#231F20"/>
<path d="M37.1195 28.1021H30.7235V31.1975H36.2115V34.3715H30.7235V37.644H37.1195V40.808H27.5254V24.9673H37.1195V28.1021Z" fill="#231F20"/>
<path d="M19.3328 37.644H25.7288V40.808H16.1348V24.9673H19.3328V37.644Z" fill="#231F20"/>
<path d="M8.82081 41.1129C4.23103 41.1129 0.5 37.3492 0.5 32.8978C0.5 28.4264 4.2804 24.6431 8.76158 24.6431C10.8344 24.6727 12.6703 25.4883 14.3384 27.0899L12.4926 29.5959C11.4069 28.5346 10.104 27.8861 8.73197 27.8861C6.17552 27.8861 3.73753 30.1462 3.73753 32.9173C3.73753 35.7376 6.26436 37.9192 8.72211 37.9192C10.1829 37.9192 11.4464 37.1428 12.5025 36.1109L14.3384 38.6857C12.9368 40.0713 11.2292 41.1129 8.82081 41.1129Z" fill="#231F20"/>
</g>
<defs>
<clipPath id="clip0_4849_18828">
<rect width="113" height="90" fill="white" transform="translate(0.5)"/>
</clipPath>
</defs>
</svg>
