<svg width="120" height="50" viewBox="0 0 120 50" fill="none" xmlns="http://www.w3.org/2000/svg">
<path d="M105.6 0.00248451H89.0863C88.2094 0.00248451 87.499 0.712902 87.499 1.58975V11.9231C87.499 11.9231 87.8021 13.4408 89.6725 13.4408C91.5429 13.4408 91.6845 11.6225 91.6845 11.6225V10.0551C91.6845 7.2408 93.9648 4.9605 96.7792 4.9605C99.5935 4.9605 101.874 7.2408 101.874 10.0551C101.874 12.8695 99.5935 15.1498 96.7792 15.1498C96.6127 15.1498 96.4488 15.1423 96.2873 15.1249C94.4989 15.0827 87.7151 15.8925 87.499 21.32V50C87.499 50 106.097 47.2502 107.187 24.4697V1.58726C107.187 0.710418 106.477 0 105.6 0V0.00248451Z" fill="#1E1E1E"/>
<path d="M118.875 1.89031C118.992 1.70153 119.059 1.47797 119.059 1.23951C119.059 0.556412 118.505 0 117.819 0C117.261 0 116.791 0.36763 116.635 0.874361L104.952 23.5854C103.909 23.6425 103.475 25.2074 103.301 25.0037C103.127 24.8 102.779 24.81 102.779 24.81C99.448 26.4419 94.9594 26.047 94.9594 26.047L94.8427 26.8568C94.7259 27.6665 95.1731 27.9174 95.1731 27.9174L99.2145 28.3422C99.2145 28.3422 96.3554 29.1619 95.1755 29.5345C95.1134 32.7041 96.728 33.3847 97.041 33.6976C97.4533 34.1125 100.086 32.5178 101.328 31.708C101.701 32.329 100.521 33.7597 98.2209 34.9396C98.5314 35.809 101.825 37.7987 103.753 37.7987C107.978 33.6977 107.419 24.81 107.419 24.81L118.87 1.88782L118.875 1.89031Z" fill="#F89C7B"/>
<path d="M90.1045 22.2386C90.5292 22.1375 90.8647 22.0402 91.2067 21.9792C92.7102 21.7128 93.4672 20.7409 93.7274 19.2872C93.7765 19.0136 93.841 18.7424 93.9456 18.4708C94.0428 18.8799 94.126 19.2928 94.2414 19.6968C94.3269 19.9968 94.4418 20.2897 94.5656 20.5765C94.8712 21.2824 95.4753 21.6211 96.1584 21.8342C96.6453 21.9859 97.1457 22.0941 97.7073 22.2396C97.2279 22.3558 96.8046 22.43 96.4009 22.5651C96.008 22.6969 95.6136 22.8542 95.2599 23.0678C94.724 23.3914 94.4839 23.9522 94.3096 24.5282C94.1633 25.0101 94.0629 25.5066 93.9232 26.0736C93.8311 25.6743 93.7377 25.346 93.6812 25.011C93.413 23.4264 92.3953 22.6686 90.9109 22.4149C90.753 22.3879 90.596 22.352 90.439 22.3185C90.3582 22.301 90.2778 22.2802 90.1045 22.2391V22.2386Z" fill="#F89C7B"/>
<path d="M80.7003 25.7966C81.0799 25.7966 81.4068 25.9442 81.681 26.2394C81.9762 26.5136 82.1238 26.851 82.1238 27.2517C82.1238 27.6524 81.9762 27.9898 81.681 28.2639C81.4068 28.5381 81.0799 28.6752 80.7003 28.6752H73.6778C73.1717 28.6752 72.7393 28.8544 72.3808 29.2129C72.0223 29.5504 71.8431 29.9721 71.8431 30.4783C71.8431 30.9211 71.9907 31.3113 72.2859 31.6487C72.5812 31.965 72.9397 32.1443 73.3615 32.1865L79.1503 32.914C79.7197 32.9984 80.2469 33.1776 80.732 33.4518C81.2381 33.7048 81.6704 34.0423 82.0289 34.464C82.3874 34.8647 82.6616 35.3287 82.8514 35.8559C83.0623 36.362 83.1677 36.8998 83.1677 37.4692C83.1677 38.1229 83.0412 38.7345 82.7881 39.3039C82.5561 39.8733 82.2293 40.3689 81.8075 40.7907C81.3857 41.2124 80.8901 41.5499 80.3207 41.8029C79.7513 42.0349 79.1398 42.1509 78.486 42.1509H70.9573C70.5567 42.1509 70.2192 42.0138 69.9451 41.7396C69.6709 41.4655 69.5339 41.1281 69.5339 40.7274C69.5339 40.3267 69.6709 39.9893 69.9451 39.7151C70.2192 39.441 70.5567 39.3039 70.9573 39.3039H78.486C78.9922 39.3039 79.4245 39.1246 79.783 38.7661C80.1415 38.4076 80.3207 37.9753 80.3207 37.4692C80.3207 37.0474 80.1731 36.6678 79.8779 36.3304C79.5826 35.993 79.2241 35.8032 78.8024 35.761L73.0135 35.0334C72.4441 34.9702 71.9063 34.8015 71.4002 34.5273C70.9152 34.2532 70.4934 33.9157 70.1349 33.515C69.7764 33.1144 69.4917 32.6504 69.2808 32.1232C69.091 31.596 68.9961 31.0477 68.9961 30.4783C68.9961 29.8456 69.1121 29.2446 69.3441 28.6752C69.5971 28.1058 69.9345 27.6102 70.3563 27.1884C70.7781 26.7667 71.2737 26.4398 71.8431 26.2078C72.4125 25.9547 73.024 25.8282 73.6778 25.8282H80.7003V25.7966Z" fill="#1E1E1E"/>
<path d="M50.9639 33.9897C50.9639 32.8299 51.1748 31.7438 51.5965 30.7315C52.0394 29.7193 52.6404 28.8441 53.3996 28.106C54.1588 27.3468 55.0445 26.7458 56.0568 26.3029C57.0691 25.86 58.1446 25.6386 59.2834 25.6386C60.4433 25.6386 61.5293 25.86 62.5416 26.3029C63.5538 26.7458 64.429 27.3468 65.1671 28.106C65.9263 28.8441 66.5168 29.7193 66.9386 30.7315C67.3814 31.7438 67.6029 32.8299 67.6029 33.9897C67.6029 35.1285 67.3814 36.2041 66.9386 37.2163C66.5168 38.2286 65.9263 39.1143 65.1671 39.8735C64.429 40.6327 63.5538 41.2337 62.5416 41.6766C61.5293 42.0984 60.4433 42.3092 59.2834 42.3092C58.2711 42.3092 57.2905 42.1405 56.3415 41.8031C55.4136 41.4446 54.57 40.9279 53.8108 40.2531V48.5093C53.8108 48.91 53.6738 49.2474 53.3996 49.5216C53.1255 49.7957 52.788 49.9328 52.3874 49.9328C51.9867 49.9328 51.6493 49.7957 51.3751 49.5216C51.1009 49.2474 50.9639 48.91 50.9639 48.5093V33.9897ZM59.2834 39.4623C60.0426 39.4623 60.749 39.3252 61.4028 39.051C62.0776 38.7558 62.6576 38.3657 63.1426 37.8806C63.6487 37.3745 64.0389 36.7945 64.313 36.1408C64.6083 35.466 64.7559 34.7489 64.7559 33.9897C64.7559 33.2306 64.6083 32.5241 64.313 31.8703C64.0389 31.1955 63.6487 30.6156 63.1426 30.1305C62.6576 29.6244 62.0776 29.2342 61.4028 28.9601C60.749 28.6648 60.0426 28.5172 59.2834 28.5172C58.5242 28.5172 57.8072 28.6648 57.1323 28.9601C56.4786 29.2342 55.8986 29.6244 55.3925 30.1305C54.9075 30.6156 54.5173 31.1955 54.2221 31.8703C53.9479 32.5241 53.8108 33.2306 53.8108 33.9897C53.8108 34.7489 53.9479 35.466 54.2221 36.1408C54.5173 36.7945 54.9075 37.3745 55.3925 37.8806C55.8986 38.3657 56.4786 38.7558 57.1323 39.051C57.8072 39.3252 58.5242 39.4623 59.2834 39.4623Z" fill="#1E1E1E"/>
<path d="M40.8927 42.3093C39.754 42.3093 38.6784 42.0984 37.6662 41.6767C36.6539 41.2338 35.7682 40.6328 35.009 39.8736C34.2498 39.1144 33.6488 38.2286 33.2059 37.2164C32.7841 36.2041 32.5732 35.1286 32.5732 33.9898C32.5732 32.8299 32.7841 31.7439 33.2059 30.7316C33.6488 29.7193 34.2498 28.8442 35.009 28.1061C35.7682 27.3469 36.6539 26.7458 37.6662 26.303C38.6784 25.8601 39.754 25.6387 40.8927 25.6387C42.0526 25.6387 43.1387 25.8601 44.151 26.303C45.1632 26.7458 46.0384 27.3469 46.7765 28.1061C47.5357 28.8442 48.1367 29.7193 48.5796 30.7316C49.0225 31.7439 49.2439 32.8299 49.2439 33.9898C49.2439 35.1286 49.0225 36.2041 48.5796 37.2164C48.1367 38.2286 47.5357 39.1144 46.7765 39.8736C46.0384 40.6328 45.1632 41.2338 44.151 41.6767C43.1387 42.0984 42.0526 42.3093 40.8927 42.3093ZM40.8927 39.4623C41.6519 39.4623 42.3584 39.3253 43.0122 39.0511C43.687 38.7559 44.2669 38.3657 44.752 37.8807C45.2581 37.3746 45.6483 36.7946 45.9224 36.1409C46.2177 35.466 46.3653 34.749 46.3653 33.9898C46.3653 33.2306 46.2177 32.5241 45.9224 31.8704C45.6483 31.1956 45.2581 30.6156 44.752 30.1306C44.2669 29.6244 43.687 29.2343 43.0122 28.9601C42.3584 28.6649 41.6519 28.5173 40.8927 28.5173C40.1336 28.5173 39.4165 28.6649 38.7417 28.9601C38.0879 29.2343 37.508 29.6244 37.0019 30.1306C36.5168 30.6156 36.1267 31.1956 35.8315 31.8704C35.5573 32.5241 35.4202 33.2306 35.4202 33.9898C35.4202 34.749 35.5573 35.466 35.8315 36.1409C36.1267 36.7946 36.5168 37.3746 37.0019 37.8807C37.508 38.3657 38.0879 38.7559 38.7417 39.0511C39.4165 39.3253 40.1336 39.4623 40.8927 39.4623Z" fill="#1E1E1E"/>
<path d="M79.3302 0.675295H83.2419V20.4861H83.0613L71.5431 9.28084V20.1491H67.6436V0.362366H67.8361L79.3302 11.5436V0.675295Z" fill="#1E1E1E"/>
<path d="M61.4692 20.1247L60.2416 17.4167H52.4786L51.2389 20.1247H47.0264L56.2939 0.241699H56.4142L65.6938 20.1247H61.4692ZM53.9951 14.0948H58.7251L56.3661 8.90742L53.9951 14.0948Z" fill="#1E1E1E"/>
<path d="M45.5942 4.5626H37.7951V8.35385H44.4869V12.2414H37.7951V16.2493H45.5942V20.1248H33.8955V0.723206H45.5942V4.5626Z" fill="#1E1E1E"/>
<path d="M23.9054 16.2493H31.7046V20.1248H20.0059V0.723206H23.9054V16.2493Z" fill="#1E1E1E"/>
<path d="M11.0875 20.4981C5.49091 20.4981 0.941406 15.8884 0.941406 10.4362C0.941406 4.95999 5.55109 0.326233 11.0153 0.326233C13.5428 0.36234 15.7815 1.36131 17.8155 3.32313L15.5648 6.39224C14.2409 5.09238 12.6522 4.29802 10.9792 4.29802C7.86195 4.29802 4.88912 7.06624 4.88912 10.4603C4.88912 13.9146 7.97027 16.5865 10.9672 16.5865C12.7485 16.5865 14.289 15.6357 15.5768 14.3719L17.8155 17.5253C16.1064 19.2223 14.0242 20.4981 11.0875 20.4981Z" fill="#1E1E1E"/>
</svg>
