<svg width="100" height="80" viewBox="0 0 100 80" fill="none" xmlns="http://www.w3.org/2000/svg">
<g clip-path="url(#clip0_4826_42852)">
<path fill-rule="evenodd" clip-rule="evenodd" d="M37.5889 0L61.1802 14.7264L59.9405 16.7123L37.5889 2.7598L15.2352 16.7125L13.9956 14.7264L37.5889 0Z" fill="#A9A9A9"/>
<path fill-rule="evenodd" clip-rule="evenodd" d="M16.6659 70.4225V43.4993H14.3247V72.7637H56.4653V70.4225H16.6659Z" fill="#A9A9A9"/>
<path d="M84.1447 21.002H64.6898C63.6567 21.002 62.8198 21.839 62.8198 22.872V35.046C62.8198 35.046 63.1768 36.834 65.3803 36.834C67.584 36.834 67.7508 34.692 67.7508 34.692V32.8453C67.7508 29.5296 70.4373 26.8431 73.753 26.8431C77.0685 26.8431 79.755 29.5296 79.755 32.8453C79.755 36.161 77.0685 38.8475 73.753 38.8475C73.5568 38.8475 73.3637 38.8386 73.1735 38.8181C71.0665 38.7685 63.0743 39.7225 62.8198 46.1166V79.9053C62.8198 79.9053 84.73 76.6656 86.0147 49.8275V22.8691C86.0147 21.8361 85.1777 20.9991 84.1447 20.9991V21.002Z" fill="#1E1E1E"/>
<path d="M99.7834 23.2261C99.9209 23.0038 99.9999 22.7403 99.9999 22.4595C99.9999 21.6546 99.3474 20.9991 98.5395 20.9991C97.8812 20.9991 97.328 21.4323 97.1437 22.0293L83.3807 48.7857C82.1515 48.8528 81.6395 50.6965 81.4345 50.4566C81.2297 50.2166 80.82 50.2283 80.82 50.2283C76.8957 52.151 71.6077 51.6856 71.6077 51.6856L71.4702 52.6396C71.3325 53.5936 71.8594 53.8893 71.8594 53.8893L76.6207 54.3896C76.6207 54.3896 73.2524 55.3555 71.8622 55.7943C71.789 59.5285 73.6914 60.3303 74.06 60.6991C74.5459 61.1878 77.6479 59.309 79.111 58.355C79.55 59.0867 78.1599 60.7723 75.45 62.1623C75.8159 63.1865 79.6964 65.5307 81.9672 65.5307C86.945 60.6992 86.2867 50.2283 86.2867 50.2283L99.7775 23.2231L99.7834 23.2261Z" fill="#F89C7B"/>
<path d="M65.8882 47.199C66.3887 47.0798 66.7839 46.9652 67.1869 46.8935C68.9582 46.5795 69.8499 45.4345 70.1565 43.7218C70.2144 43.3995 70.2902 43.08 70.4135 42.76C70.528 43.242 70.626 43.7285 70.762 44.2045C70.8627 44.5578 70.9982 44.903 71.144 45.2408C71.504 46.0725 72.2157 46.4715 73.0205 46.7225C73.5942 46.9012 74.1837 47.0287 74.8454 47.2002C74.2805 47.337 73.7819 47.4245 73.3062 47.5837C72.8434 47.739 72.3787 47.9243 71.962 48.1758C71.3307 48.5572 71.0477 49.2178 70.8424 49.8963C70.67 50.4642 70.5517 51.0492 70.3872 51.717C70.2787 51.2467 70.1687 50.8598 70.102 50.4652C69.786 48.5983 68.5872 47.7055 66.8384 47.4067C66.6524 47.3748 66.4673 47.3327 66.2823 47.293C66.1872 47.2725 66.0925 47.2475 65.8882 47.199Z" fill="white"/>
<path d="M57.8856 40.3901C58.1611 40.3901 58.3983 40.4973 58.5973 40.7116C58.8114 40.9106 58.9186 41.1555 58.9186 41.4463C58.9186 41.737 58.8114 41.982 58.5973 42.181C58.3983 42.3798 58.1611 42.4793 57.8856 42.4793H52.7889C52.4216 42.4793 52.1078 42.6095 51.8476 42.8696C51.5874 43.1145 51.4574 43.4206 51.4574 43.788C51.4574 44.1093 51.5644 44.3925 51.7788 44.6373C51.9931 44.867 52.2533 44.997 52.5593 45.0276L56.7606 45.5556C57.1738 45.617 57.5564 45.747 57.9084 45.946C58.2758 46.1296 58.5896 46.3745 58.8498 46.6806C59.1099 46.9715 59.3089 47.3081 59.4466 47.6908C59.5998 48.0581 59.6763 48.4483 59.6763 48.8616C59.6763 49.336 59.5844 49.78 59.4008 50.1931C59.2324 50.6063 58.9951 50.966 58.6891 51.2721C58.383 51.5783 58.0233 51.8231 57.6101 52.0068C57.1968 52.1751 56.7529 52.2593 56.2784 52.2593H50.8146C50.5238 52.2593 50.2789 52.1598 50.0799 51.9608C49.8809 51.762 49.7814 51.517 49.7814 51.2263C49.7814 50.9355 49.8809 50.6906 50.0799 50.4916C50.2789 50.2926 50.5238 50.1931 50.8146 50.1931H56.2784C56.6458 50.1931 56.9596 50.063 57.2198 49.8028C57.4799 49.5426 57.6101 49.229 57.6101 48.8616C57.6101 48.5555 57.5029 48.28 57.2886 48.0351C57.0744 47.7903 56.8141 47.6525 56.5081 47.6218L52.3068 47.0938C51.8936 47.048 51.5033 46.9255 51.1359 46.7265C50.7839 46.5276 50.4778 46.2826 50.2176 45.9918C49.9574 45.7011 49.7508 45.3643 49.5978 44.9818C49.4601 44.5991 49.3911 44.2011 49.3911 43.788C49.3911 43.3288 49.4754 42.8926 49.6438 42.4793C49.8274 42.0661 50.0723 41.7065 50.3784 41.4003C50.6844 41.0943 51.0441 40.857 51.4574 40.6886C51.8706 40.505 52.3144 40.4131 52.7889 40.4131H57.8856V40.3901Z" fill="#231F20"/>
<path d="M36.3037 46.3362C36.3037 45.4943 36.4569 44.7062 36.7629 43.9715C37.0844 43.2368 37.5205 42.6017 38.0715 42.066C38.6225 41.515 39.2654 41.0788 40 40.7573C40.7347 40.436 41.5152 40.2753 42.3417 40.2753C43.1834 40.2753 43.9717 40.436 44.7064 40.7573C45.441 41.0788 46.0762 41.515 46.6119 42.066C47.1629 42.6017 47.5914 43.2368 47.8974 43.9715C48.2189 44.7062 48.3795 45.4943 48.3795 46.3362C48.3795 47.1627 48.2189 47.9432 47.8974 48.6778C47.5914 49.4125 47.1629 50.0553 46.6119 50.6063C46.0762 51.1572 45.441 51.5935 44.7064 51.9148C43.9717 52.221 43.1834 52.374 42.3417 52.374C41.607 52.374 40.8954 52.2515 40.2065 52.0067C39.5332 51.7465 38.921 51.3715 38.37 50.8817V56.8737C38.37 57.1645 38.2705 57.4093 38.0715 57.6083C37.8725 57.8073 37.6277 57.9068 37.3369 57.9068C37.046 57.9068 36.8012 57.8073 36.6022 57.6083C36.4032 57.4093 36.3037 57.1645 36.3037 56.8737V46.3362ZM42.3417 50.3078C42.8927 50.3078 43.4054 50.2083 43.8799 50.0093C44.3695 49.795 44.7905 49.512 45.1425 49.1598C45.5099 48.7927 45.793 48.3717 45.9919 47.8972C46.2062 47.4075 46.3134 46.8872 46.3134 46.3362C46.3134 45.7852 46.2062 45.2723 45.9919 44.798C45.793 44.3082 45.5099 43.8873 45.1425 43.5353C44.7905 43.168 44.3695 42.8848 43.8799 42.6858C43.4054 42.4715 42.8927 42.3645 42.3417 42.3645C41.7907 42.3645 41.2704 42.4715 40.7805 42.6858C40.306 42.8848 39.8852 43.168 39.5179 43.5353C39.1659 43.8873 38.8827 44.3082 38.6684 44.798C38.4695 45.2723 38.37 45.7852 38.37 46.3362C38.37 46.8872 38.4695 47.4075 38.6684 47.8972C38.8827 48.3717 39.1659 48.7927 39.5179 49.1598C39.8852 49.512 40.306 49.795 40.7805 50.0093C41.2704 50.2083 41.7907 50.3078 42.3417 50.3078Z" fill="#231F20"/>
<path d="M28.9958 52.374C28.1693 52.374 27.3888 52.221 26.6542 51.9148C25.9195 51.5935 25.2767 51.1572 24.7257 50.6063C24.1747 50.0553 23.7385 49.4125 23.4172 48.6778C23.111 47.9432 22.958 47.1627 22.958 46.3362C22.958 45.4943 23.111 44.7062 23.4172 43.9715C23.7385 43.2368 24.1747 42.6017 24.7257 42.066C25.2767 41.515 25.9195 41.0788 26.6542 40.7573C27.3888 40.436 28.1693 40.2753 28.9958 40.2753C29.8377 40.2753 30.6258 40.436 31.3605 40.7573C32.0952 41.0788 32.7303 41.515 33.266 42.066C33.817 42.6017 34.2532 43.2368 34.5745 43.9715C34.896 44.7062 35.0567 45.4943 35.0567 46.3362C35.0567 47.1627 34.896 47.9432 34.5745 48.6778C34.2532 49.4125 33.817 50.0553 33.266 50.6063C32.7303 51.1572 32.0952 51.5935 31.3605 51.9148C30.6258 52.221 29.8377 52.374 28.9958 52.374ZM28.9958 50.3078C29.5468 50.3078 30.0595 50.2083 30.534 50.0093C31.0237 49.795 31.4447 49.512 31.7967 49.1598C32.164 48.7927 32.4472 48.3717 32.6462 47.8972C32.8603 47.4075 32.9675 46.8872 32.9675 46.3362C32.9675 45.7852 32.8603 45.2723 32.6462 44.798C32.4472 44.3082 32.164 43.8873 31.7967 43.5353C31.4447 43.168 31.0237 42.8848 30.534 42.6858C30.0595 42.4715 29.5468 42.3645 28.9958 42.3645C28.4448 42.3645 27.9245 42.4715 27.4347 42.6858C26.9602 42.8848 26.5393 43.168 26.172 43.5353C25.82 43.8873 25.5368 44.3082 25.3225 44.798C25.1237 45.2723 25.0242 45.7852 25.0242 46.3362C25.0242 46.8872 25.1237 47.4075 25.3225 47.8972C25.5368 48.3717 25.82 48.7927 26.172 49.1598C26.5393 49.512 26.9602 49.795 27.4347 50.0093C27.9245 50.2083 28.4448 50.3078 28.9958 50.3078Z" fill="#231F20"/>
<path d="M56.8908 22.1583H59.7297V36.536H59.5987L51.2393 28.4037V36.2913H48.4092V21.9312H48.549L56.8908 30.0458V22.1583Z" fill="#231F20"/>
<path d="M43.9278 36.2739L43.0368 34.3085H37.4028L36.5031 36.2739H33.4458L40.1718 21.8437H40.2591L46.9938 36.2739H43.9278ZM38.5033 31.8975H41.9361L40.2241 28.1329L38.5033 31.8975Z" fill="#231F20"/>
<path d="M32.4063 24.9797H26.7462V27.7312H31.6028V30.5525H26.7462V33.4613H32.4063V36.2738H23.916V22.1932H32.4063V24.9797Z" fill="#231F20"/>
<path d="M16.6661 33.4613H22.3262V36.2738H13.8359V22.1932H16.6661V33.4613Z" fill="#231F20"/>
<path d="M7.36355 36.5447C3.3018 36.5447 0 33.1992 0 29.2423C0 25.2678 3.34548 21.9048 7.31113 21.9048C9.14548 21.9312 10.7702 22.6562 12.2464 24.0798L10.613 26.3073C9.6521 25.364 8.49908 24.7875 7.28493 24.7875C5.02258 24.7875 2.86507 26.7965 2.86507 29.2597C2.86507 31.7667 5.1012 33.7058 7.2762 33.7058C8.56897 33.7058 9.68705 33.0157 10.6217 32.0985L12.2464 34.3872C11.006 35.6188 9.49487 36.5447 7.36355 36.5447Z" fill="#231F20"/>
</g>
<defs>
<clipPath id="clip0_4826_42852">
<rect width="100" height="80" fill="white"/>
</clipPath>
</defs>
</svg>
